<?xml version="1.0" encoding="utf-8"?>
<!-- Generator: Adobe Illustrator 22.1.0, SVG Export Plug-In . SVG Version: 6.00 Build 0)  -->
<svg version="1.1" id="Layer_1" xmlns="http://www.w3.org/2000/svg" xmlns:xlink="http://www.w3.org/1999/xlink" x="0px" y="0px"
	 viewBox="0 0 222 145" style="enable-background:new 0 0 222 145;" xml:space="preserve">
<style type="text/css">
	.st0{enable-background:new    ;}
	.st1{fill:#B4965A;}
</style>
<g class="st0">
	<path class="st1" d="M11.2,21c-1,0.9-2.2,1.3-3.7,1.3c-1,0-1.8-0.2-2.5-0.6s-1.3-1-1.8-1.7c-0.5-0.7-0.8-1.6-1.1-2.6
		c-0.2-1-0.3-2.1-0.3-3.3c0-1.2,0.1-2.4,0.4-3.4c0.3-1,0.6-1.9,1.1-2.6c0.5-0.7,1.1-1.3,1.8-1.7c0.7-0.4,1.6-0.6,2.5-0.6
		c0.7,0,1.3,0.1,1.9,0.4c0.6,0.3,1.1,0.6,1.6,1.1c0.5,0.5,0.9,1,1.2,1.7s0.5,1.4,0.7,2.2h-2.1c-0.1-0.5-0.2-0.9-0.3-1.3
		C10.4,9.4,10.2,9,9.9,8.7C9.6,8.4,9.3,8.2,8.9,8C8.5,7.8,8.1,7.7,7.6,7.7c-1.2,0-2.1,0.5-2.7,1.6c-0.6,1.1-1,2.6-1,4.7
		c0,1,0.1,1.9,0.2,2.7c0.2,0.8,0.4,1.5,0.7,2s0.7,1,1.2,1.3c0.5,0.3,1,0.4,1.6,0.4c0.5,0,0.9-0.1,1.3-0.2c0.4-0.2,0.7-0.4,1-0.7
		c0.3-0.3,0.5-0.6,0.6-1c0.2-0.4,0.3-0.8,0.4-1.3h2.1C12.8,18.8,12.1,20.1,11.2,21z"/>
	<path class="st1" d="M30.2,15.3h-0.6h-1.8V22h-2.1V6h3.9c0.9,0,1.7,0.1,2.4,0.2s1.4,0.3,2,0.7c0.5,0.3,1,0.8,1.3,1.4
		c0.3,0.6,0.5,1.4,0.5,2.3c0,1.2-0.3,2.2-0.8,2.9c-0.5,0.7-1.2,1.1-2.1,1.4l3.4,7.1h-2.4l-3.1-6.7C30.6,15.3,30.4,15.3,30.2,15.3z
		 M27.8,13.3h2c0.5,0,1,0,1.5-0.1c0.5,0,0.9-0.2,1.2-0.3c0.3-0.2,0.6-0.5,0.8-0.8c0.2-0.4,0.3-0.8,0.3-1.5s-0.1-1.1-0.3-1.5
		c-0.2-0.4-0.5-0.6-0.8-0.8s-0.7-0.3-1.2-0.3C30.9,8,30.4,8,29.9,8h-2V13.3z"/>
	<path class="st1" d="M56.1,6.4c0.7,0.4,1.4,1,1.9,1.7c0.5,0.7,0.9,1.6,1.1,2.6c0.2,1,0.4,2.1,0.4,3.3s-0.1,2.3-0.4,3.3
		c-0.2,1-0.6,1.9-1.1,2.6c-0.5,0.7-1.1,1.3-1.9,1.7c-0.7,0.4-1.6,0.6-2.6,0.6s-1.9-0.2-2.6-0.6s-1.4-1-1.9-1.7s-0.9-1.6-1.1-2.6
		c-0.2-1-0.4-2.1-0.4-3.3s0.1-2.3,0.4-3.3c0.2-1,0.6-1.9,1.1-2.6s1.1-1.3,1.9-1.7c0.7-0.4,1.6-0.6,2.6-0.6S55.3,6,56.1,6.4z
		 M50.6,9.3C50,10.4,49.7,12,49.7,14s0.3,3.6,0.9,4.7c0.6,1.1,1.6,1.7,2.9,1.7s2.3-0.6,2.9-1.7s0.9-2.7,0.9-4.7s-0.3-3.6-0.9-4.7
		c-0.6-1.1-1.6-1.7-2.9-1.7S51.2,8.2,50.6,9.3z"/>
	<path class="st1" d="M73.7,14c-0.5-0.2-0.9-0.5-1.3-0.9c-0.4-0.4-0.7-0.8-0.9-1.3s-0.3-1.1-0.3-1.7c0-0.7,0.1-1.3,0.4-1.8
		c0.3-0.5,0.7-1,1.1-1.4s1-0.7,1.7-0.9s1.3-0.3,2-0.3c0.6,0,1.2,0.1,1.8,0.3c0.6,0.2,1.1,0.4,1.6,0.8c0.5,0.4,0.9,0.8,1.2,1.4
		s0.5,1.2,0.6,2h-2.1c-0.1-0.5-0.2-0.9-0.4-1.2c-0.2-0.3-0.5-0.6-0.8-0.8s-0.7-0.3-1-0.4s-0.7-0.1-1.1-0.1s-0.7,0-1.1,0.1
		c-0.4,0.1-0.7,0.2-0.9,0.4C74,8.5,73.8,8.7,73.6,9s-0.3,0.7-0.3,1.1c0,0.7,0.2,1.2,0.7,1.6c0.4,0.4,1,0.6,1.6,0.8l1.6,0.4
		c0.6,0.1,1.3,0.3,1.8,0.6c0.6,0.2,1.1,0.5,1.5,0.9s0.8,0.8,1.1,1.3s0.4,1.2,0.4,1.9c0,0.7-0.1,1.4-0.4,2c-0.3,0.6-0.6,1.1-1.1,1.5
		c-0.5,0.4-1.1,0.7-1.7,0.9s-1.4,0.3-2.1,0.3c-0.8,0-1.6-0.1-2.2-0.4s-1.3-0.6-1.8-1.1c-0.5-0.5-0.9-1-1.2-1.7s-0.5-1.4-0.5-2.2H73
		c0.1,1.1,0.5,1.9,1.2,2.5c0.7,0.6,1.5,0.9,2.6,0.9c0.4,0,0.8-0.1,1.2-0.2c0.4-0.1,0.7-0.3,1-0.5c0.3-0.2,0.6-0.5,0.7-0.8
		c0.2-0.3,0.3-0.7,0.3-1.2c0-0.4-0.1-0.8-0.2-1.1c-0.1-0.3-0.4-0.6-0.6-0.8c-0.3-0.2-0.6-0.4-0.9-0.6c-0.4-0.1-0.8-0.3-1.2-0.4
		l-1.7-0.4C74.7,14.4,74.2,14.2,73.7,14z"/>
	<path class="st1" d="M96.7,14c-0.5-0.2-0.9-0.5-1.3-0.9c-0.4-0.4-0.7-0.8-0.9-1.3s-0.3-1.1-0.3-1.7c0-0.7,0.1-1.3,0.4-1.8
		c0.3-0.5,0.7-1,1.1-1.4s1-0.7,1.7-0.9s1.3-0.3,2-0.3c0.6,0,1.2,0.1,1.8,0.3c0.6,0.2,1.1,0.4,1.6,0.8c0.5,0.4,0.9,0.8,1.2,1.4
		s0.5,1.2,0.6,2h-2.1c-0.1-0.5-0.2-0.9-0.4-1.2c-0.2-0.3-0.5-0.6-0.8-0.8s-0.7-0.3-1-0.4s-0.7-0.1-1.1-0.1s-0.7,0-1.1,0.1
		c-0.4,0.1-0.7,0.2-0.9,0.4C97,8.5,96.8,8.7,96.6,9s-0.3,0.7-0.3,1.1c0,0.7,0.2,1.2,0.7,1.6c0.4,0.4,1,0.6,1.6,0.8l1.6,0.4
		c0.6,0.1,1.3,0.3,1.8,0.6c0.6,0.2,1.1,0.5,1.5,0.9s0.8,0.8,1.1,1.3s0.4,1.2,0.4,1.9c0,0.7-0.1,1.4-0.4,2c-0.3,0.6-0.6,1.1-1.1,1.5
		c-0.5,0.4-1.1,0.7-1.7,0.9s-1.4,0.3-2.1,0.3c-0.8,0-1.6-0.1-2.2-0.4s-1.3-0.6-1.8-1.1c-0.5-0.5-0.9-1-1.2-1.7s-0.5-1.4-0.5-2.2H96
		c0.1,1.1,0.5,1.9,1.2,2.5c0.7,0.6,1.5,0.9,2.6,0.9c0.4,0,0.8-0.1,1.2-0.2c0.4-0.1,0.7-0.3,1-0.5c0.3-0.2,0.6-0.5,0.7-0.8
		c0.2-0.3,0.3-0.7,0.3-1.2c0-0.4-0.1-0.8-0.2-1.1c-0.1-0.3-0.4-0.6-0.6-0.8c-0.3-0.2-0.6-0.4-0.9-0.6c-0.4-0.1-0.8-0.3-1.2-0.4
		l-1.7-0.4C97.7,14.4,97.2,14.2,96.7,14z"/>
	<path class="st1" d="M122.3,15.3h-0.6h-1.8V22h-2.1V6h3.9c0.9,0,1.7,0.1,2.4,0.2c0.8,0.1,1.4,0.3,2,0.7s1,0.8,1.3,1.4
		c0.3,0.6,0.5,1.4,0.5,2.3c0,1.2-0.3,2.2-0.8,2.9s-1.2,1.1-2.1,1.4l3.4,7.1H126l-3.1-6.7C122.7,15.3,122.5,15.3,122.3,15.3z
		 M119.9,13.3h2c0.5,0,1,0,1.5-0.1c0.5,0,0.9-0.2,1.2-0.3c0.3-0.2,0.6-0.5,0.8-0.8c0.2-0.4,0.3-0.8,0.3-1.5s-0.1-1.1-0.3-1.5
		c-0.2-0.4-0.5-0.6-0.8-0.8s-0.7-0.3-1.2-0.3C123,8,122.5,8,121.9,8h-2V13.3z"/>
	<path class="st1" d="M148.1,6.4c0.7,0.4,1.4,1,1.9,1.7s0.9,1.6,1.1,2.6c0.2,1,0.4,2.1,0.4,3.3s-0.1,2.3-0.4,3.3
		c-0.2,1-0.6,1.9-1.1,2.6s-1.1,1.3-1.9,1.7s-1.6,0.6-2.6,0.6c-1,0-1.9-0.2-2.6-0.6s-1.4-1-1.9-1.7s-0.9-1.6-1.1-2.6
		c-0.2-1-0.4-2.1-0.4-3.3s0.1-2.3,0.4-3.3c0.2-1,0.6-1.9,1.1-2.6s1.1-1.3,1.9-1.7c0.7-0.4,1.6-0.6,2.6-0.6
		C146.5,5.8,147.4,6,148.1,6.4z M142.6,9.3c-0.6,1.1-0.9,2.7-0.9,4.7s0.3,3.6,0.9,4.7c0.6,1.1,1.6,1.7,2.9,1.7s2.3-0.6,2.9-1.7
		c0.6-1.1,0.9-2.7,0.9-4.7s-0.3-3.6-0.9-4.7c-0.6-1.1-1.6-1.7-2.9-1.7S143.2,8.2,142.6,9.3z"/>
	<path class="st1" d="M172.6,22l-1.1-3.4h-6.1l-1.1,3.4h-2.2l5.2-16h2.2l5.2,16H172.6z M171,16.6l-2.4-7.8l-2.4,7.8H171z"/>
	<path class="st1" d="M192.4,6.4c1,0.3,1.9,0.7,2.6,1.3c0.7,0.6,1.3,1.4,1.7,2.5c0.4,1,0.6,2.3,0.6,3.8s-0.2,2.8-0.6,3.8
		c-0.4,1-1,1.8-1.7,2.5c-0.7,0.6-1.6,1.1-2.6,1.3c-1,0.3-2.1,0.4-3.2,0.4h-2.7V6h2.7C190.4,6,191.4,6.2,192.4,6.4z M194.7,10.8
		c-0.4-0.8-0.8-1.4-1.4-1.8c-0.6-0.4-1.2-0.7-2-0.8c-0.7-0.1-1.5-0.2-2.2-0.2h-0.6v12h0.6c0.7,0,1.5-0.1,2.2-0.2
		c0.7-0.1,1.4-0.4,2-0.8c0.6-0.4,1-1,1.4-1.8s0.5-1.9,0.5-3.2C195.3,12.6,195.1,11.6,194.7,10.8z"/>
	<path class="st1" d="M211.8,14c-0.5-0.2-0.9-0.5-1.3-0.9c-0.4-0.4-0.7-0.8-0.9-1.3c-0.2-0.5-0.3-1.1-0.3-1.7c0-0.7,0.1-1.3,0.4-1.8
		s0.7-1,1.1-1.4s1-0.7,1.7-0.9s1.3-0.3,2-0.3c0.6,0,1.2,0.1,1.8,0.3s1.1,0.4,1.6,0.8c0.5,0.4,0.9,0.8,1.2,1.4s0.5,1.2,0.6,2h-2.1
		c-0.1-0.5-0.2-0.9-0.4-1.2c-0.2-0.3-0.5-0.6-0.8-0.8s-0.7-0.3-1-0.4c-0.4-0.1-0.7-0.1-1.1-0.1c-0.4,0-0.7,0-1.1,0.1
		c-0.4,0.1-0.7,0.2-0.9,0.4c-0.3,0.2-0.5,0.4-0.7,0.7s-0.3,0.7-0.3,1.1c0,0.7,0.2,1.2,0.7,1.6c0.4,0.4,1,0.6,1.6,0.8l1.6,0.4
		c0.6,0.1,1.3,0.3,1.8,0.6c0.6,0.2,1.1,0.5,1.5,0.9c0.4,0.4,0.8,0.8,1.1,1.3c0.3,0.5,0.4,1.2,0.4,1.9c0,0.7-0.1,1.4-0.4,2
		c-0.3,0.6-0.6,1.1-1.1,1.5s-1.1,0.7-1.7,0.9s-1.4,0.3-2.1,0.3c-0.8,0-1.6-0.1-2.2-0.4s-1.3-0.6-1.8-1.1c-0.5-0.5-0.9-1-1.2-1.7
		S209,17.8,209,17h2.1c0.1,1.1,0.5,1.9,1.2,2.5c0.7,0.6,1.5,0.9,2.6,0.9c0.4,0,0.8-0.1,1.2-0.2c0.4-0.1,0.7-0.3,1-0.5
		c0.3-0.2,0.6-0.5,0.7-0.8c0.2-0.3,0.3-0.7,0.3-1.2c0-0.4-0.1-0.8-0.2-1.1c-0.1-0.3-0.4-0.6-0.6-0.8c-0.3-0.2-0.6-0.4-0.9-0.6
		c-0.4-0.1-0.8-0.3-1.2-0.4l-1.7-0.4C212.8,14.4,212.2,14.2,211.8,14z"/>
</g>
<g class="st0">
	<path class="st1" d="M90.6,35.4c0.7,0.4,1.4,1,1.9,1.7c0.5,0.7,0.9,1.6,1.1,2.6c0.2,1,0.4,2.1,0.4,3.3s-0.1,2.3-0.4,3.3
		c-0.2,1-0.6,1.9-1.1,2.6c-0.5,0.7-1.1,1.3-1.9,1.7S89,51.3,88,51.3s-1.9-0.2-2.6-0.6s-1.4-1-1.9-1.7s-0.9-1.6-1.1-2.6
		c-0.2-1-0.4-2.1-0.4-3.3s0.1-2.3,0.4-3.3c0.2-1,0.6-1.9,1.1-2.6s1.1-1.3,1.9-1.7c0.7-0.4,1.6-0.6,2.6-0.6S89.9,35,90.6,35.4z
		 M85.1,38.3c-0.6,1.1-0.9,2.7-0.9,4.7s0.3,3.6,0.9,4.7c0.6,1.1,1.6,1.7,2.9,1.7s2.3-0.6,2.9-1.7s0.9-2.7,0.9-4.7s-0.3-3.6-0.9-4.7
		c-0.6-1.1-1.6-1.7-2.9-1.7S85.7,37.2,85.1,38.3z"/>
	<path class="st1" d="M116.6,35v2h-7.7v4.8h7.3v2h-7.3V51h-2.1V35H116.6z"/>
</g>
<g class="st0">
	<path class="st1" d="M92.1,80L91,76.6h-6.1L83.9,80h-2.2l5.2-16h2.2l5.2,16H92.1z M90.4,74.6L88,66.8l-2.4,7.8H90.4z"/>
	<path class="st1" d="M110.8,73.3h-0.6h-1.8V80h-2.1V64h3.9c0.9,0,1.7,0.1,2.4,0.2c0.8,0.1,1.4,0.3,2,0.7s1,0.8,1.3,1.4
		c0.3,0.6,0.5,1.4,0.5,2.3c0,1.2-0.3,2.2-0.8,2.9s-1.2,1.1-2.1,1.4l3.4,7.1h-2.4l-3.1-6.7C111.2,73.3,111,73.3,110.8,73.3z
		 M108.4,71.3h2c0.5,0,1,0,1.5-0.1c0.5,0,0.9-0.2,1.2-0.3c0.3-0.2,0.6-0.5,0.8-0.8c0.2-0.4,0.3-0.8,0.3-1.5s-0.1-1.1-0.3-1.5
		c-0.2-0.4-0.5-0.6-0.8-0.8s-0.7-0.3-1.2-0.3c-0.5,0-0.9-0.1-1.5-0.1h-2V71.3z"/>
	<path class="st1" d="M128.2,66v-2h11.7v2H135v14H133V66H128.2z"/>
</g>
<g class="st0">
	<path class="st1" d="M80.6,109l-1.1-3.4h-6.1l-1.1,3.4h-2.2l5.2-16h2.2l5.2,16H80.6z M78.9,103.6l-2.4-7.8l-2.4,7.8H78.9z"/>
	<path class="st1" d="M96.4,95.4V109h-2.1V93h3.1l5.1,13.6V93h2.1v16h-3.1L96.4,95.4z"/>
	<path class="st1" d="M123.4,93.4c1,0.3,1.9,0.7,2.6,1.3c0.7,0.6,1.3,1.4,1.7,2.5c0.4,1,0.6,2.3,0.6,3.8s-0.2,2.8-0.6,3.8
		c-0.4,1-1,1.8-1.7,2.5c-0.7,0.6-1.6,1.1-2.6,1.3c-1,0.3-2.1,0.4-3.2,0.4h-2.7V93h2.7C121.3,93,122.4,93.2,123.4,93.4z M125.7,97.8
		c-0.4-0.8-0.8-1.4-1.4-1.8c-0.6-0.4-1.2-0.7-2-0.8c-0.7-0.1-1.5-0.2-2.2-0.2h-0.6v12h0.6c0.7,0,1.5-0.1,2.2-0.2
		c0.7-0.1,1.4-0.4,2-0.8c0.6-0.4,1-1,1.4-1.8s0.5-1.9,0.5-3.2C126.2,99.6,126.1,98.6,125.7,97.8z"/>
</g>
<g class="st0">
	<path class="st1" d="M47.5,122v2h-7.7v4.8h7.3v2h-7.3v7.2h-2.1v-16H47.5z"/>
	<path class="st1" d="M69.1,138l-1.1-3.4h-6.1l-1.1,3.4h-2.2l5.2-16h2.2l5.2,16H69.1z M67.4,132.6l-2.4-7.8l-2.4,7.8H67.4z"/>
	<path class="st1" d="M85.2,130c-0.5-0.2-0.9-0.5-1.3-0.9c-0.4-0.4-0.7-0.8-0.9-1.3s-0.3-1.1-0.3-1.7c0-0.7,0.1-1.3,0.4-1.8
		c0.3-0.5,0.7-1,1.1-1.4s1-0.7,1.7-0.9s1.3-0.3,2-0.3c0.6,0,1.2,0.1,1.8,0.3c0.6,0.2,1.1,0.4,1.6,0.8c0.5,0.4,0.9,0.8,1.2,1.4
		s0.5,1.2,0.6,2h-2.1c-0.1-0.5-0.2-0.9-0.4-1.2c-0.2-0.3-0.5-0.6-0.8-0.8s-0.7-0.3-1-0.4s-0.7-0.1-1.1-0.1s-0.7,0-1.1,0.1
		c-0.4,0.1-0.7,0.2-0.9,0.4c-0.3,0.2-0.5,0.4-0.7,0.7s-0.3,0.7-0.3,1.1c0,0.7,0.2,1.2,0.7,1.6c0.4,0.4,1,0.6,1.6,0.8l1.6,0.4
		c0.6,0.1,1.3,0.3,1.8,0.6c0.6,0.2,1.1,0.5,1.5,0.9s0.8,0.8,1.1,1.3s0.4,1.2,0.4,1.9c0,0.7-0.1,1.4-0.4,2c-0.3,0.6-0.6,1.1-1.1,1.5
		c-0.5,0.4-1.1,0.7-1.7,0.9s-1.4,0.3-2.1,0.3c-0.8,0-1.6-0.1-2.2-0.4s-1.3-0.6-1.8-1.1c-0.5-0.5-0.9-1-1.2-1.7s-0.5-1.4-0.5-2.2h2.1
		c0.1,1.1,0.5,1.9,1.2,2.5c0.7,0.6,1.5,0.9,2.6,0.9c0.4,0,0.8-0.1,1.2-0.2c0.4-0.1,0.7-0.3,1-0.5c0.3-0.2,0.6-0.5,0.7-0.8
		c0.2-0.3,0.3-0.7,0.3-1.2c0-0.4-0.1-0.8-0.2-1.1c-0.1-0.3-0.4-0.6-0.6-0.8c-0.3-0.2-0.6-0.4-0.9-0.6c-0.4-0.1-0.8-0.3-1.2-0.4
		l-1.7-0.4C86.2,130.4,85.7,130.2,85.2,130z"/>
	<path class="st1" d="M116.2,138h-2.1v-7.2h-6.2v7.2h-2.1v-16h2.1v6.8h6.2V122h2.1V138z"/>
	<path class="st1" d="M139.1,122v2h-4v12h4v2h-10.1v-2h4v-12h-4v-2H139.1z"/>
	<path class="st1" d="M159.6,122.4c0.7,0.4,1.4,1,1.9,1.7c0.5,0.7,0.9,1.6,1.1,2.6c0.2,1,0.4,2.1,0.4,3.3s-0.1,2.3-0.4,3.3
		c-0.2,1-0.6,1.9-1.1,2.6c-0.5,0.7-1.1,1.3-1.9,1.7s-1.6,0.6-2.6,0.6c-1,0-1.9-0.2-2.6-0.6s-1.4-1-1.9-1.7s-0.9-1.6-1.1-2.6
		c-0.2-1-0.4-2.1-0.4-3.3s0.1-2.3,0.4-3.3c0.2-1,0.6-1.9,1.1-2.6s1.1-1.3,1.9-1.7c0.7-0.4,1.6-0.6,2.6-0.6
		C158,121.8,158.9,122,159.6,122.4z M154.1,125.3c-0.6,1.1-0.9,2.7-0.9,4.7s0.3,3.6,0.9,4.7c0.6,1.1,1.6,1.7,2.9,1.7
		s2.3-0.6,2.9-1.7c0.6-1.1,0.9-2.7,0.9-4.7s-0.3-3.6-0.9-4.7c-0.6-1.1-1.6-1.7-2.9-1.7S154.7,124.2,154.1,125.3z"/>
	<path class="st1" d="M177,124.4V138h-2.1v-16h3.1l5.1,13.6V122h2.1v16h-3.1L177,124.4z"/>
</g>
</svg>
