<?xml version="1.0" encoding="utf-8"?>
<!-- Generator: Adobe Illustrator 22.1.0, SVG Export Plug-In . SVG Version: 6.00 Build 0)  -->
<svg version="1.1" id="Layer_1" xmlns="http://www.w3.org/2000/svg" xmlns:xlink="http://www.w3.org/1999/xlink" x="0px" y="0px"
	 viewBox="0 0 398 400" style="enable-background:new 0 0 398 400;" xml:space="preserve">
<style type="text/css">
	.st0{enable-background:new    ;}
	.st1{fill:#B4965A;}
</style>
<g id="Group_630" transform="translate(-58 -1008.369)">
	<g class="st0">
		<path class="st1" d="M93.3,1030.4h-2.1v-7.2H85v7.2h-2.1v-16H85v6.8h6.2v-6.8h2.1V1030.4z"/>
		<path class="st1" d="M116,1014.4v2h-7.4v4.8h7v2h-7v5.3h7.4v2h-9.5v-16H116z"/>
		<path class="st1" d="M138.2,1030.4l-1.1-3.4h-6.1l-1.1,3.4h-2.2l5.2-16h2.2l5.2,16H138.2z M136.6,1025l-2.4-7.8l-2.4,7.8H136.6z"
			/>
		<path class="st1" d="M153.2,1014.4l3.9,13.2l3.9-13.2h2.2l-5,16H156l-5-16H153.2z"/>
		<path class="st1" d="M185.2,1014.4v2h-4v12h4v2h-10.1v-2h4v-12h-4v-2H185.2z"/>
		<path class="st1" d="M208.7,1028.4v2h-9.9v-16h2.1v14H208.7z"/>
		<path class="st1" d="M232.7,1014.4l-5.5,10v6h-2.1v-6l-5.5-10h2.4l4.1,7.8l4.1-7.8H232.7z"/>
	</g>
	<g class="st0">
		<path class="st1" d="M62.3,1235.7c-0.6,1.1-1,2.6-1,4.7c0,1,0.1,1.9,0.2,2.7c0.2,0.8,0.4,1.5,0.7,2c0.3,0.5,0.7,1,1.2,1.3
			c0.5,0.3,1.1,0.4,1.7,0.4c0.5,0,0.9-0.1,1.4-0.2c0.4-0.1,0.8-0.3,1.2-0.6s0.6-0.7,0.8-1.3c0.2-0.5,0.3-1.2,0.3-2v-0.5h-3.7v-2h5.6
			v8.3h-1.6l-0.1-2c-0.5,0.8-1,1.4-1.7,1.8c-0.6,0.4-1.4,0.5-2.4,0.5c-1,0-1.9-0.2-2.7-0.6c-0.7-0.4-1.4-1-1.8-1.7
			c-0.5-0.7-0.8-1.6-1.1-2.6c-0.2-1-0.3-2.1-0.3-3.3c0-1.2,0.1-2.4,0.4-3.4c0.3-1,0.6-1.9,1.2-2.6c0.5-0.7,1.2-1.3,1.9-1.7
			c0.8-0.4,1.7-0.6,2.7-0.6c1.5,0,2.7,0.5,3.7,1.4c1,0.9,1.6,2.2,1.8,3.8h-2.2c-0.1-0.5-0.2-0.9-0.3-1.3c-0.1-0.4-0.4-0.8-0.6-1
			c-0.3-0.3-0.6-0.5-1-0.7s-0.9-0.3-1.5-0.3C63.9,1234.1,62.9,1234.6,62.3,1235.7z"/>
		<path class="st1" d="M93,1232.4v2h-7.4v4.8h7v2h-7v5.3H93v2h-9.5v-16H93z"/>
		<path class="st1" d="M113.7,1232.7c0.7,0.4,1.4,1,1.9,1.7c0.5,0.7,0.9,1.6,1.1,2.6c0.2,1,0.4,2.1,0.4,3.3s-0.1,2.3-0.4,3.3
			c-0.2,1-0.6,1.9-1.1,2.6c-0.5,0.7-1.1,1.3-1.9,1.7c-0.7,0.4-1.6,0.6-2.6,0.6s-1.9-0.2-2.6-0.6s-1.4-1-1.9-1.7s-0.9-1.6-1.1-2.6
			c-0.2-1-0.4-2.1-0.4-3.3s0.1-2.3,0.4-3.3c0.2-1,0.6-1.9,1.1-2.6s1.1-1.3,1.9-1.7c0.7-0.4,1.6-0.6,2.6-0.6S113,1232.3,113.7,1232.7
			z M108.2,1235.7c-0.6,1.1-0.9,2.7-0.9,4.7s0.3,3.6,0.9,4.7c0.6,1.1,1.6,1.7,2.9,1.7s2.3-0.6,2.9-1.7s0.9-2.7,0.9-4.7
			s-0.3-3.6-0.9-4.7c-0.6-1.1-1.6-1.7-2.9-1.7S108.8,1234.6,108.2,1235.7z"/>
		<path class="st1" d="M139.7,1246.4v2h-9.9v-16h2.1v14H139.7z"/>
		<path class="st1" d="M159.8,1232.7c0.7,0.4,1.4,1,1.9,1.7c0.5,0.7,0.9,1.6,1.1,2.6c0.2,1,0.4,2.1,0.4,3.3s-0.1,2.3-0.4,3.3
			c-0.2,1-0.6,1.9-1.1,2.6c-0.5,0.7-1.1,1.3-1.9,1.7s-1.6,0.6-2.6,0.6s-1.9-0.2-2.6-0.6s-1.4-1-1.9-1.7s-0.9-1.6-1.1-2.6
			c-0.2-1-0.4-2.1-0.4-3.3s0.1-2.3,0.4-3.3c0.2-1,0.6-1.9,1.1-2.6s1.1-1.3,1.9-1.7c0.7-0.4,1.6-0.6,2.6-0.6S159,1232.3,159.8,1232.7
			z M154.3,1235.7c-0.6,1.1-0.9,2.7-0.9,4.7s0.3,3.6,0.9,4.7c0.6,1.1,1.6,1.7,2.9,1.7s2.3-0.6,2.9-1.7s0.9-2.7,0.9-4.7
			s-0.3-3.6-0.9-4.7c-0.6-1.1-1.6-1.7-2.9-1.7S154.9,1234.6,154.3,1235.7z"/>
		<path class="st1" d="M177.3,1235.7c-0.6,1.1-1,2.6-1,4.7c0,1,0.1,1.9,0.2,2.7c0.2,0.8,0.4,1.5,0.7,2c0.3,0.5,0.7,1,1.2,1.3
			c0.5,0.3,1.1,0.4,1.7,0.4c0.5,0,0.9-0.1,1.4-0.2c0.4-0.1,0.8-0.3,1.2-0.6s0.6-0.7,0.8-1.3c0.2-0.5,0.3-1.2,0.3-2v-0.5h-3.7v-2h5.6
			v8.3h-1.6l-0.1-2c-0.5,0.8-1,1.4-1.7,1.8c-0.6,0.4-1.4,0.5-2.4,0.5c-1,0-1.9-0.2-2.7-0.6c-0.7-0.4-1.4-1-1.8-1.7
			c-0.5-0.7-0.8-1.6-1.1-2.6c-0.2-1-0.3-2.1-0.3-3.3c0-1.2,0.1-2.4,0.4-3.4c0.3-1,0.6-1.9,1.2-2.6c0.5-0.7,1.2-1.3,1.9-1.7
			c0.8-0.4,1.7-0.6,2.7-0.6c1.5,0,2.7,0.5,3.7,1.4c1,0.9,1.6,2.2,1.8,3.8h-2.2c-0.1-0.5-0.2-0.9-0.3-1.3c-0.1-0.4-0.4-0.8-0.6-1
			c-0.3-0.3-0.6-0.5-1-0.7s-0.9-0.3-1.5-0.3C178.9,1234.1,178,1234.6,177.3,1235.7z"/>
		<path class="st1" d="M209.7,1232.4l-5.5,10v6h-2.1v-6l-5.5-10h2.4l4.1,7.8l4.1-7.8H209.7z"/>
		<path class="st1" d="M227.4,1245.8v2.7l-1.3,2.9h-1.3l1.2-3.1h-1.1v-2.5H227.4z"/>
	</g>
	<g class="st0">
		<path class="st1" d="M123,1285.7v13.6h-2.1v-16h3.1l5.1,13.6v-13.6h2.1v16h-3.1L123,1285.7z"/>
		<path class="st1" d="M153.2,1299.4l-1.1-3.4h-6.1l-1.1,3.4h-2.2l5.2-16h2.2l5.2,16H153.2z M151.5,1294l-2.4-7.8l-2.4,7.8H151.5z"
			/>
		<path class="st1" d="M166.3,1285.4v-2H178v2h-4.8v14h-2.1v-14H166.3z"/>
		<path class="st1" d="M191.9,1293.1c0,0.8,0,1.5,0.1,2c0.1,0.6,0.2,1.1,0.5,1.4c0.2,0.4,0.6,0.7,1,0.8c0.4,0.2,1,0.3,1.7,0.3
			c0.7,0,1.2-0.1,1.7-0.3c0.4-0.2,0.8-0.5,1-0.9c0.2-0.4,0.4-0.9,0.5-1.5s0.1-1.3,0.1-2.1v-9.5h2.1v9.3c0,1.2-0.1,2.2-0.3,3.1
			c-0.2,0.9-0.5,1.6-0.9,2.2c-0.4,0.6-1,1-1.7,1.3c-0.7,0.3-1.6,0.4-2.6,0.4c-1,0-1.8-0.1-2.5-0.4c-0.7-0.2-1.2-0.6-1.6-1.2
			s-0.7-1.2-0.9-2.1c-0.2-0.9-0.3-1.9-0.3-3.2v-9.5h2.1V1293.1z"/>
		<path class="st1" d="M217.9,1292.7h-0.6h-1.8v6.7h-2.1v-16h3.9c0.9,0,1.7,0.1,2.4,0.2s1.4,0.3,2,0.7c0.5,0.3,1,0.8,1.3,1.4
			c0.3,0.6,0.5,1.4,0.5,2.3c0,1.2-0.3,2.2-0.8,2.9c-0.5,0.7-1.2,1.1-2.1,1.4l3.4,7.1h-2.4l-3.1-6.7
			C218.3,1292.7,218.1,1292.7,217.9,1292.7z M215.5,1290.7h2c0.5,0,1,0,1.5-0.1c0.5,0,0.9-0.2,1.2-0.3c0.3-0.2,0.6-0.5,0.8-0.8
			c0.2-0.4,0.3-0.8,0.3-1.5s-0.1-1.1-0.3-1.5c-0.2-0.4-0.5-0.6-0.8-0.8s-0.7-0.3-1.2-0.3c-0.5,0-0.9-0.1-1.5-0.1h-2V1290.7z"/>
		<path class="st1" d="M245.3,1299.4l-1.1-3.4h-6.1l-1.1,3.4h-2.2l5.2-16h2.2l5.2,16H245.3z M243.6,1294l-2.4-7.8l-2.4,7.8H243.6z"
			/>
		<path class="st1" d="M269.7,1297.4v2h-9.9v-16h2.1v14H269.7z"/>
		<path class="st1" d="M315.4,1299.4h-2.1v-7.2h-6.2v7.2H305v-16h2.1v6.8h6.2v-6.8h2.1V1299.4z"/>
		<path class="st1" d="M338.3,1283.4v2h-4v12h4v2h-10.1v-2h4v-12h-4v-2H338.3z"/>
		<path class="st1" d="M353.4,1291.3c-0.5-0.2-0.9-0.5-1.3-0.9c-0.4-0.4-0.7-0.8-0.9-1.3c-0.2-0.5-0.3-1.1-0.3-1.7
			c0-0.7,0.1-1.3,0.4-1.8c0.3-0.5,0.7-1,1.1-1.4s1-0.7,1.7-0.9s1.3-0.3,2-0.3c0.6,0,1.2,0.1,1.8,0.3c0.6,0.2,1.1,0.4,1.6,0.8
			c0.5,0.4,0.9,0.8,1.2,1.4s0.5,1.2,0.6,2h-2.1c-0.1-0.5-0.2-0.9-0.4-1.2c-0.2-0.3-0.5-0.6-0.8-0.8c-0.3-0.2-0.7-0.3-1-0.4
			s-0.7-0.1-1.1-0.1c-0.4,0-0.7,0-1.1,0.1c-0.4,0.1-0.7,0.2-0.9,0.4c-0.3,0.2-0.5,0.4-0.7,0.7s-0.3,0.7-0.3,1.1
			c0,0.7,0.2,1.2,0.7,1.6c0.4,0.4,1,0.6,1.6,0.8l1.6,0.4c0.6,0.1,1.3,0.3,1.8,0.6c0.6,0.2,1.1,0.5,1.5,0.9s0.8,0.8,1.1,1.3
			c0.3,0.5,0.4,1.2,0.4,1.9c0,0.7-0.1,1.4-0.4,2c-0.3,0.6-0.6,1.1-1.1,1.5c-0.5,0.4-1.1,0.7-1.7,0.9s-1.4,0.3-2.1,0.3
			c-0.8,0-1.6-0.1-2.2-0.4s-1.3-0.6-1.8-1.1c-0.5-0.5-0.9-1-1.2-1.7s-0.5-1.4-0.5-2.2h2.1c0.1,1.1,0.5,1.9,1.2,2.5
			c0.7,0.6,1.5,0.9,2.6,0.9c0.4,0,0.8-0.1,1.2-0.2c0.4-0.1,0.7-0.3,1-0.5c0.3-0.2,0.6-0.5,0.7-0.8c0.2-0.3,0.3-0.7,0.3-1.2
			c0-0.4-0.1-0.8-0.2-1.1c-0.1-0.3-0.4-0.6-0.6-0.8c-0.3-0.2-0.6-0.4-0.9-0.6c-0.4-0.1-0.8-0.3-1.2-0.4l-1.7-0.4
			C354.4,1291.7,353.9,1291.6,353.4,1291.3z"/>
		<path class="st1" d="M373.4,1285.4v-2h11.7v2h-4.8v14h-2.1v-14H373.4z"/>
		<path class="st1" d="M404.9,1283.7c0.7,0.4,1.4,1,1.9,1.7s0.9,1.6,1.1,2.6c0.2,1,0.4,2.1,0.4,3.3s-0.1,2.3-0.4,3.3
			c-0.2,1-0.6,1.9-1.1,2.6s-1.1,1.3-1.9,1.7c-0.7,0.4-1.6,0.6-2.6,0.6s-1.9-0.2-2.6-0.6s-1.4-1-1.9-1.7s-0.9-1.6-1.1-2.6
			c-0.2-1-0.4-2.1-0.4-3.3s0.1-2.3,0.4-3.3c0.2-1,0.6-1.9,1.1-2.6s1.1-1.3,1.9-1.7c0.7-0.4,1.6-0.6,2.6-0.6
			S404.1,1283.3,404.9,1283.7z M399.4,1286.7c-0.6,1.1-0.9,2.7-0.9,4.7s0.3,3.6,0.9,4.7c0.6,1.1,1.6,1.7,2.9,1.7s2.3-0.6,2.9-1.7
			s0.9-2.7,0.9-4.7s-0.3-3.6-0.9-4.7c-0.6-1.1-1.6-1.7-2.9-1.7S400,1285.6,399.4,1286.7z"/>
		<path class="st1" d="M425,1292.7h-0.6h-1.8v6.7h-2.1v-16h3.9c0.9,0,1.7,0.1,2.4,0.2s1.4,0.3,2,0.7c0.5,0.3,1,0.8,1.3,1.4
			c0.3,0.6,0.5,1.4,0.5,2.3c0,1.2-0.3,2.2-0.8,2.9c-0.5,0.7-1.2,1.1-2.1,1.4l3.4,7.1h-2.4l-3.1-6.7
			C425.4,1292.7,425.2,1292.7,425,1292.7z M422.6,1290.7h2c0.5,0,1,0,1.5-0.1s0.9-0.2,1.2-0.3c0.3-0.2,0.6-0.5,0.8-0.8
			c0.2-0.4,0.3-0.8,0.3-1.5s-0.1-1.1-0.3-1.5c-0.2-0.4-0.5-0.6-0.8-0.8s-0.7-0.3-1.2-0.3s-0.9-0.1-1.5-0.1h-2V1290.7z"/>
		<path class="st1" d="M454.8,1283.4l-5.5,10v6h-2.1v-6l-5.5-10h2.4l4.1,7.8l4.1-7.8H454.8z"/>
	</g>
	<g class="st0">
		<path class="st1" d="M123.3,1393.3c-0.5-0.2-0.9-0.5-1.3-0.9c-0.4-0.4-0.7-0.8-0.9-1.3s-0.3-1.1-0.3-1.7c0-0.7,0.1-1.3,0.4-1.8
			c0.3-0.5,0.7-1,1.1-1.4s1-0.7,1.7-0.9s1.3-0.3,2-0.3c0.6,0,1.2,0.1,1.8,0.3c0.6,0.2,1.1,0.4,1.6,0.8c0.5,0.4,0.9,0.8,1.2,1.4
			s0.5,1.2,0.6,2h-2.1c-0.1-0.5-0.2-0.9-0.4-1.2c-0.2-0.3-0.5-0.6-0.8-0.8s-0.7-0.3-1-0.4s-0.7-0.1-1.1-0.1s-0.7,0-1.1,0.1
			c-0.4,0.1-0.7,0.2-0.9,0.4c-0.3,0.2-0.5,0.4-0.7,0.7s-0.3,0.7-0.3,1.1c0,0.7,0.2,1.2,0.7,1.6c0.4,0.4,1,0.6,1.6,0.8l1.6,0.4
			c0.6,0.1,1.3,0.3,1.8,0.6c0.6,0.2,1.1,0.5,1.5,0.9s0.8,0.8,1.1,1.3s0.4,1.2,0.4,1.9c0,0.7-0.1,1.4-0.4,2c-0.3,0.6-0.6,1.1-1.1,1.5
			c-0.5,0.4-1.1,0.7-1.7,0.9s-1.4,0.3-2.1,0.3c-0.8,0-1.6-0.1-2.2-0.4s-1.3-0.6-1.8-1.1c-0.5-0.5-0.9-1-1.2-1.7s-0.5-1.4-0.5-2.2
			h2.1c0.1,1.1,0.5,1.9,1.2,2.5c0.7,0.6,1.5,0.9,2.6,0.9c0.4,0,0.8-0.1,1.2-0.2c0.4-0.1,0.7-0.3,1-0.5c0.3-0.2,0.6-0.5,0.7-0.8
			c0.2-0.3,0.3-0.7,0.3-1.2c0-0.4-0.1-0.8-0.2-1.1c-0.1-0.3-0.4-0.6-0.6-0.8c-0.3-0.2-0.6-0.4-0.9-0.6c-0.4-0.1-0.8-0.3-1.2-0.4
			l-1.7-0.4C124.3,1393.7,123.8,1393.6,123.3,1393.3z"/>
		<path class="st1" d="M152.8,1400.3c-1,0.9-2.2,1.3-3.7,1.3c-1,0-1.8-0.2-2.5-0.6s-1.3-1-1.8-1.7c-0.5-0.7-0.8-1.6-1.1-2.6
			c-0.2-1-0.3-2.1-0.3-3.3c0-1.2,0.1-2.4,0.4-3.4c0.3-1,0.6-1.9,1.1-2.6c0.5-0.7,1.1-1.3,1.8-1.7c0.7-0.4,1.6-0.6,2.5-0.6
			c0.7,0,1.3,0.1,1.9,0.4c0.6,0.3,1.1,0.6,1.6,1.1c0.5,0.5,0.9,1,1.2,1.7s0.5,1.4,0.7,2.2h-2.1c-0.1-0.5-0.2-0.9-0.3-1.3
			c-0.2-0.4-0.4-0.8-0.6-1.1c-0.3-0.3-0.6-0.6-1-0.7c-0.4-0.2-0.8-0.3-1.3-0.3c-1.2,0-2.1,0.5-2.7,1.6c-0.6,1.1-1,2.6-1,4.7
			c0,1,0.1,1.9,0.2,2.7c0.2,0.8,0.4,1.5,0.7,2s0.7,1,1.2,1.3c0.5,0.3,1,0.4,1.6,0.4c0.5,0,0.9-0.1,1.3-0.2c0.4-0.2,0.7-0.4,1-0.7
			c0.3-0.3,0.5-0.6,0.6-1c0.2-0.4,0.3-0.8,0.4-1.3h2.1C154.5,1398.1,153.8,1399.4,152.8,1400.3z"/>
		<path class="st1" d="M177.2,1385.4v2h-4v12h4v2H167v-2h4v-12h-4v-2H177.2z"/>
		<path class="st1" d="M200,1385.4v2h-7.4v4.8h7v2h-7v5.3h7.4v2h-9.5v-16H200z"/>
		<path class="st1" d="M215.1,1387.7v13.6H213v-16h3.1l5.1,13.6v-13.6h2.1v16h-3.1L215.1,1387.7z"/>
		<path class="st1" d="M235.3,1387.4v-2H247v2h-4.8v14h-2.1v-14H235.3z"/>
		<path class="st1" d="M269,1385.4v2h-7.4v4.8h7v2h-7v5.3h7.4v2h-9.5v-16H269z"/>
		<path class="st1" d="M315.8,1385.4v2H308v4.8h7.3v2H308v7.2H306v-16H315.8z"/>
		<path class="st1" d="M338.3,1385.4v2h-4v12h4v2h-10.1v-2h4v-12h-4v-2H338.3z"/>
		<path class="st1" d="M359.9,1400.3c-1,0.9-2.2,1.3-3.7,1.3c-1,0-1.8-0.2-2.5-0.6s-1.3-1-1.8-1.7s-0.8-1.6-1.1-2.6
			c-0.2-1-0.3-2.1-0.3-3.3c0-1.2,0.1-2.4,0.4-3.4c0.3-1,0.6-1.9,1.1-2.6c0.5-0.7,1.1-1.3,1.8-1.7c0.7-0.4,1.6-0.6,2.5-0.6
			c0.7,0,1.3,0.1,1.9,0.4s1.1,0.6,1.6,1.1c0.5,0.5,0.9,1,1.2,1.7s0.5,1.4,0.7,2.2h-2.1c-0.1-0.5-0.2-0.9-0.3-1.3
			c-0.2-0.4-0.4-0.8-0.6-1.1s-0.6-0.6-1-0.7c-0.4-0.2-0.8-0.3-1.3-0.3c-1.2,0-2.1,0.5-2.7,1.6c-0.6,1.1-1,2.6-1,4.7
			c0,1,0.1,1.9,0.2,2.7c0.2,0.8,0.4,1.5,0.7,2c0.3,0.5,0.7,1,1.2,1.3c0.5,0.3,1,0.4,1.6,0.4c0.5,0,0.9-0.1,1.3-0.2
			c0.4-0.2,0.7-0.4,1-0.7c0.3-0.3,0.5-0.6,0.6-1c0.2-0.4,0.3-0.8,0.4-1.3h2.1C361.6,1398.1,360.9,1399.4,359.9,1400.3z"/>
		<path class="st1" d="M373.4,1387.4v-2h11.7v2h-4.8v14h-2.1v-14H373.4z"/>
		<path class="st1" d="M407.3,1385.4v2h-4v12h4v2h-10.1v-2h4v-12h-4v-2H407.3z"/>
		<path class="st1" d="M427.9,1385.7c0.7,0.4,1.4,1,1.9,1.7s0.9,1.6,1.1,2.6c0.2,1,0.4,2.1,0.4,3.3s-0.1,2.3-0.4,3.3
			c-0.2,1-0.6,1.9-1.1,2.6s-1.1,1.3-1.9,1.7c-0.7,0.4-1.6,0.6-2.6,0.6s-1.9-0.2-2.6-0.6s-1.4-1-1.9-1.7s-0.9-1.6-1.1-2.6
			c-0.2-1-0.4-2.1-0.4-3.3s0.1-2.3,0.4-3.3c0.2-1,0.6-1.9,1.1-2.6s1.1-1.3,1.9-1.7c0.7-0.4,1.6-0.6,2.6-0.6
			S427.1,1385.3,427.9,1385.7z M422.4,1388.7c-0.6,1.1-0.9,2.7-0.9,4.7s0.3,3.6,0.9,4.7c0.6,1.1,1.6,1.7,2.9,1.7s2.3-0.6,2.9-1.7
			s0.9-2.7,0.9-4.7s-0.3-3.6-0.9-4.7c-0.6-1.1-1.6-1.7-2.9-1.7S423,1387.6,422.4,1388.7z"/>
		<path class="st1" d="M445.2,1387.7v13.6h-2.1v-16h3.1l5.1,13.6v-13.6h2.1v16h-3.1L445.2,1387.7z"/>
	</g>
	<g class="st0">
		<path class="st1" d="M294.2,1350.4l-1.1-3.4H287l-1.1,3.4h-2.2l5.2-16h2.2l5.2,16H294.2z M292.5,1345l-2.4-7.8l-2.4,7.8H292.5z"/>
		<path class="st1" d="M310,1336.7v13.6h-2.1v-16h3.1l5.1,13.6v-13.6h2.1v16h-3.1L310,1336.7z"/>
		<path class="st1" d="M337,1334.8c1,0.3,1.9,0.7,2.6,1.3c0.7,0.6,1.3,1.4,1.7,2.5c0.4,1,0.6,2.3,0.6,3.8s-0.2,2.8-0.6,3.8
			c-0.4,1-1,1.8-1.7,2.5c-0.7,0.6-1.6,1.1-2.6,1.3c-1,0.3-2.1,0.4-3.2,0.4h-2.7v-16h2.7C335,1334.4,336,1334.5,337,1334.8z
			 M339.3,1339.1c-0.4-0.8-0.8-1.4-1.4-1.8c-0.6-0.4-1.2-0.7-2-0.8s-1.5-0.2-2.2-0.2h-0.6v12h0.6c0.7,0,1.5-0.1,2.2-0.2
			s1.4-0.4,2-0.8c0.6-0.4,1-1,1.4-1.8s0.5-1.9,0.5-3.2C339.9,1341,339.7,1339.9,339.3,1339.1z"/>
	</g>
	<g class="st0">
		<path class="st1" d="M64.9,1148.4c0.7,0,1.3,0.1,1.9,0.2c0.6,0.1,1.2,0.3,1.7,0.6c0.5,0.3,0.9,0.7,1.2,1.2s0.4,1.2,0.4,1.9
			c0,0.8-0.1,1.5-0.4,2.1c-0.3,0.6-0.7,1.1-1.2,1.4c0.7,0.3,1.2,0.8,1.6,1.4c0.4,0.6,0.6,1.4,0.6,2.4c0,0.9-0.1,1.6-0.4,2.2
			c-0.3,0.6-0.7,1.1-1.2,1.5c-0.5,0.4-1.1,0.7-1.7,0.8c-0.6,0.2-1.3,0.3-2,0.3h-5.2v-16H64.9z M65.3,1155.2c0.8,0,1.5-0.2,2-0.6
			c0.5-0.4,0.7-1,0.7-2c0-0.8-0.2-1.4-0.7-1.7c-0.5-0.3-1.2-0.5-2-0.5h-3.1v4.8H65.3z M65.6,1162.4c2,0,3-0.9,3-2.7
			c0-0.9-0.3-1.6-0.8-2c-0.5-0.4-1.3-0.6-2.4-0.6h-3.1v5.3H65.6z"/>
		<path class="st1" d="M94.7,1148.4l-5.5,10v6h-2.1v-6l-5.5-10H84l4.1,7.8l4.1-7.8H94.7z"/>
		<path class="st1" d="M128.3,1150.4v-2H140v2h-4.8v14h-2.1v-14H128.3z"/>
		<path class="st1" d="M162.3,1164.4h-2.1v-7.2h-6.2v7.2H152v-16h2.1v6.8h6.2v-6.8h2.1V1164.4z"/>
		<path class="st1" d="M185,1148.4v2h-7.4v4.8h7v2h-7v5.3h7.4v2h-9.5v-16H185z"/>
		<path class="st1" d="M223.4,1156.3c-0.5-0.2-0.9-0.5-1.3-0.9c-0.4-0.4-0.7-0.8-0.9-1.3s-0.3-1.1-0.3-1.7c0-0.7,0.1-1.3,0.4-1.8
			c0.3-0.5,0.7-1,1.1-1.4s1-0.7,1.7-0.9s1.3-0.3,2-0.3c0.6,0,1.2,0.1,1.8,0.3c0.6,0.2,1.1,0.4,1.6,0.8c0.5,0.4,0.9,0.8,1.2,1.4
			s0.5,1.2,0.6,2h-2.1c-0.1-0.5-0.2-0.9-0.4-1.2c-0.2-0.3-0.5-0.6-0.8-0.8s-0.7-0.3-1-0.4s-0.7-0.1-1.1-0.1s-0.7,0-1.1,0.1
			c-0.4,0.1-0.7,0.2-0.9,0.4c-0.3,0.2-0.5,0.4-0.7,0.7s-0.3,0.7-0.3,1.1c0,0.7,0.2,1.2,0.7,1.6c0.4,0.4,1,0.6,1.6,0.8l1.6,0.4
			c0.6,0.1,1.3,0.3,1.8,0.6c0.6,0.2,1.1,0.5,1.5,0.9s0.8,0.8,1.1,1.3s0.4,1.2,0.4,1.9c0,0.7-0.1,1.4-0.4,2c-0.3,0.6-0.6,1.1-1.1,1.5
			c-0.5,0.4-1.1,0.7-1.7,0.9s-1.4,0.3-2.1,0.3c-0.8,0-1.6-0.1-2.2-0.4s-1.3-0.6-1.8-1.1c-0.5-0.5-0.9-1-1.2-1.7s-0.5-1.4-0.5-2.2
			h2.1c0.1,1.1,0.5,1.9,1.2,2.5c0.7,0.6,1.5,0.9,2.6,0.9c0.4,0,0.8-0.1,1.2-0.2c0.4-0.1,0.7-0.3,1-0.5c0.3-0.2,0.6-0.5,0.7-0.8
			c0.2-0.3,0.3-0.7,0.3-1.2c0-0.4-0.1-0.8-0.2-1.1c-0.1-0.3-0.4-0.6-0.6-0.8c-0.3-0.2-0.6-0.4-0.9-0.6c-0.4-0.1-0.8-0.3-1.2-0.4
			l-1.7-0.4C224.4,1156.7,223.9,1156.6,223.4,1156.3z"/>
		<path class="st1" d="M243.3,1150.4v-2H255v2h-4.8v14h-2.1v-14H243.3z"/>
		<path class="st1" d="M268.9,1158.1c0,0.8,0,1.5,0.1,2c0.1,0.6,0.2,1.1,0.5,1.4c0.2,0.4,0.6,0.7,1,0.8c0.4,0.2,1,0.3,1.7,0.3
			c0.7,0,1.2-0.1,1.7-0.3c0.4-0.2,0.8-0.5,1-0.9c0.2-0.4,0.4-0.9,0.5-1.5s0.1-1.3,0.1-2.1v-9.5h2.1v9.3c0,1.2-0.1,2.2-0.3,3.1
			c-0.2,0.9-0.5,1.6-0.9,2.2c-0.4,0.6-1,1-1.7,1.3c-0.7,0.3-1.6,0.4-2.6,0.4c-1,0-1.8-0.1-2.5-0.4c-0.7-0.2-1.2-0.6-1.6-1.2
			s-0.7-1.2-0.9-2.1c-0.2-0.9-0.3-1.9-0.3-3.2v-9.5h2.1V1158.1z"/>
		<path class="st1" d="M296.1,1148.8c1,0.3,1.9,0.7,2.6,1.3s1.3,1.4,1.7,2.5s0.6,2.3,0.6,3.8s-0.2,2.8-0.6,3.8s-1,1.8-1.7,2.5
			c-0.7,0.6-1.6,1.1-2.6,1.3c-1,0.3-2.1,0.4-3.2,0.4h-2.7v-16h2.7C294,1148.4,295.1,1148.5,296.1,1148.8z M298.4,1153.1
			c-0.4-0.8-0.8-1.4-1.4-1.8c-0.6-0.4-1.2-0.7-2-0.8c-0.7-0.1-1.5-0.2-2.2-0.2h-0.6v12h0.6c0.7,0,1.5-0.1,2.2-0.2
			c0.7-0.1,1.4-0.4,2-0.8c0.6-0.4,1-1,1.4-1.8s0.5-1.9,0.5-3.2C299,1155,298.8,1153.9,298.4,1153.1z"/>
		<path class="st1" d="M324.8,1148.4l-5.5,10v6h-2.1v-6l-5.5-10h2.4l4.1,7.8l4.1-7.8H324.8z"/>
		<path class="st1" d="M366.9,1148.7c0.7,0.4,1.4,1,1.9,1.7s0.9,1.6,1.1,2.6c0.2,1,0.4,2.1,0.4,3.3s-0.1,2.3-0.4,3.3
			c-0.2,1-0.6,1.9-1.1,2.6s-1.1,1.3-1.9,1.7c-0.7,0.4-1.6,0.6-2.6,0.6s-1.9-0.2-2.6-0.6s-1.4-1-1.9-1.7s-0.9-1.6-1.1-2.6
			c-0.2-1-0.4-2.1-0.4-3.3s0.1-2.3,0.4-3.3c0.2-1,0.6-1.9,1.1-2.6s1.1-1.3,1.9-1.7c0.7-0.4,1.6-0.6,2.6-0.6
			S366.1,1148.3,366.9,1148.7z M361.4,1151.7c-0.6,1.1-0.9,2.7-0.9,4.7s0.3,3.6,0.9,4.7c0.6,1.1,1.6,1.7,2.9,1.7s2.3-0.6,2.9-1.7
			s0.9-2.7,0.9-4.7s-0.3-3.6-0.9-4.7c-0.6-1.1-1.6-1.7-2.9-1.7S362,1150.6,361.4,1151.7z"/>
		<path class="st1" d="M392.8,1148.4v2h-7.7v4.8h7.3v2h-7.3v7.2H383v-16H392.8z"/>
	</g>
	<g class="st0">
		<path class="st1" d="M130.9,1054.4v2h-4v12h4v2h-10.1v-2h4v-12h-4v-2H130.9z"/>
		<path class="st1" d="M145.8,1056.7v13.6h-2.1v-16h3.1l5.1,13.6v-13.6h2.1v16h-3.1L145.8,1056.7z"/>
		<path class="st1" d="M177.4,1054.4v2h-7.7v4.8h7.3v2h-7.3v7.2h-2.1v-16H177.4z"/>
		<path class="st1" d="M200.4,1068.4v2h-9.9v-16h2.1v14H200.4z"/>
		<path class="st1" d="M214.6,1064.1c0,0.8,0,1.5,0.1,2c0.1,0.6,0.2,1.1,0.5,1.4c0.2,0.4,0.6,0.7,1,0.8c0.4,0.2,1,0.3,1.7,0.3
			c0.7,0,1.2-0.1,1.7-0.3c0.4-0.2,0.8-0.5,1-0.9s0.4-0.9,0.5-1.5s0.1-1.3,0.1-2.1v-9.5h2.1v9.3c0,1.2-0.1,2.2-0.3,3.1
			c-0.2,0.9-0.5,1.6-0.9,2.2c-0.4,0.6-1,1-1.7,1.3c-0.7,0.3-1.6,0.4-2.6,0.4c-1,0-1.8-0.1-2.5-0.4c-0.7-0.2-1.2-0.6-1.6-1.2
			s-0.7-1.2-0.9-2.1c-0.2-0.9-0.3-1.9-0.3-3.2v-9.5h2.1V1064.1z"/>
		<path class="st1" d="M245.7,1054.4v2h-7.4v4.8h7v2h-7v5.3h7.4v2h-9.5v-16H245.7z"/>
		<path class="st1" d="M260.8,1056.7v13.6h-2.1v-16h3.1l5.1,13.6v-13.6h2.1v16h-3.1L260.8,1056.7z"/>
		<path class="st1" d="M290.6,1069.3c-1,0.9-2.2,1.3-3.7,1.3c-1,0-1.8-0.2-2.5-0.6s-1.3-1-1.8-1.7c-0.5-0.7-0.8-1.6-1.1-2.6
			c-0.2-1-0.3-2.1-0.3-3.3c0-1.2,0.1-2.4,0.4-3.4s0.6-1.9,1.1-2.6s1.1-1.3,1.8-1.7c0.7-0.4,1.6-0.6,2.5-0.6c0.7,0,1.3,0.1,1.9,0.4
			s1.1,0.6,1.6,1.1c0.5,0.5,0.9,1,1.2,1.7c0.3,0.7,0.5,1.4,0.7,2.2h-2.1c-0.1-0.5-0.2-0.9-0.3-1.3c-0.2-0.4-0.4-0.8-0.6-1.1
			c-0.3-0.3-0.6-0.6-1-0.7c-0.4-0.2-0.8-0.3-1.3-0.3c-1.2,0-2.1,0.5-2.7,1.6c-0.6,1.1-1,2.6-1,4.7c0,1,0.1,1.9,0.2,2.7
			c0.2,0.8,0.4,1.5,0.7,2c0.3,0.5,0.7,1,1.2,1.3c0.5,0.3,1,0.4,1.6,0.4c0.5,0,0.9-0.1,1.3-0.2c0.4-0.2,0.7-0.4,1-0.7
			c0.3-0.3,0.5-0.6,0.6-1s0.3-0.8,0.4-1.3h2.1C292.2,1067.1,291.6,1068.4,290.6,1069.3z"/>
		<path class="st1" d="M314.8,1054.4v2h-7.4v4.8h7v2h-7v5.3h7.4v2h-9.5v-16H314.8z"/>
		<path class="st1" d="M333.8,1054.8c1,0.3,1.9,0.7,2.6,1.3s1.3,1.4,1.7,2.5c0.4,1,0.6,2.3,0.6,3.8s-0.2,2.8-0.6,3.8
			c-0.4,1-1,1.8-1.7,2.5c-0.7,0.6-1.6,1.1-2.6,1.3c-1,0.3-2.1,0.4-3.2,0.4h-2.7v-16h2.7C331.8,1054.4,332.8,1054.5,333.8,1054.8z
			 M336.1,1059.1c-0.4-0.8-0.8-1.4-1.4-1.8s-1.2-0.7-2-0.8c-0.7-0.1-1.5-0.2-2.2-0.2H330v12h0.6c0.7,0,1.5-0.1,2.2-0.2
			c0.7-0.1,1.4-0.4,2-0.8c0.6-0.4,1-1,1.4-1.8s0.5-1.9,0.5-3.2C336.7,1061,336.5,1059.9,336.1,1059.1z"/>
	</g>
</g>
</svg>
