<svg xmlns="http://www.w3.org/2000/svg" viewBox="-6899 748.507 17.062 17.062">
  <defs>
    <style>
      .cls-1 {
        fill: #b4965a;
      }
    </style>
  </defs>
  <path id="instagram_icon_inline" class="cls-1" d="M32.631,28.256a4.4,4.4,0,1,0,4.4,4.4A4.4,4.4,0,0,0,32.631,28.256Zm0,7.243a2.844,2.844,0,1,1,2.844-2.844A2.832,2.832,0,0,1,32.631,35.5ZM37.2,27.065a1.021,1.021,0,1,0,1.021,1.021A1,1,0,0,0,37.2,27.065Zm0,0a1.021,1.021,0,1,0,1.021,1.021A1,1,0,0,0,37.2,27.065Zm-4.569,1.191a4.4,4.4,0,1,0,4.4,4.4A4.4,4.4,0,0,0,32.631,28.256Zm0,7.243a2.844,2.844,0,1,1,2.844-2.844A2.832,2.832,0,0,1,32.631,35.5Zm8.482-6.392a6.933,6.933,0,0,0-.389-2.066,3.982,3.982,0,0,0-1-1.507,4.177,4.177,0,0,0-1.507-1,5.672,5.672,0,0,0-2.066-.389c-.9-.049-1.191-.049-3.524-.049s-2.6,0-3.524.049a6.932,6.932,0,0,0-2.066.389,3.982,3.982,0,0,0-1.507,1,4.177,4.177,0,0,0-1,1.507,5.672,5.672,0,0,0-.389,2.066c-.049.924-.049,1.191-.049,3.524s0,2.6.049,3.524a6.932,6.932,0,0,0,.389,2.066,3.982,3.982,0,0,0,1,1.507,4.177,4.177,0,0,0,1.507,1,5.672,5.672,0,0,0,2.066.389c.924.049,1.191.049,3.524.049s2.6,0,3.524-.049a6.932,6.932,0,0,0,2.066-.389,3.982,3.982,0,0,0,1.507-1,4.177,4.177,0,0,0,1-1.507,5.672,5.672,0,0,0,.389-2.066c.049-.924.049-1.191.049-3.524S41.162,30.03,41.113,29.107Zm-1.555,6.951a4.84,4.84,0,0,1-.292,1.58,2.794,2.794,0,0,1-1.6,1.6,4.254,4.254,0,0,1-1.58.292c-.9.049-1.167.049-3.451.049s-2.552,0-3.451-.049a4.841,4.841,0,0,1-1.58-.292,2.794,2.794,0,0,1-1.6-1.6,4.254,4.254,0,0,1-.292-1.58c-.049-.9-.049-1.167-.049-3.451s0-2.552.049-3.451A4.841,4.841,0,0,1,26,27.576a2.794,2.794,0,0,1,1.6-1.6,4.254,4.254,0,0,1,1.58-.292c.9-.049,1.167-.049,3.451-.049s2.552,0,3.451.049a4.841,4.841,0,0,1,1.58.292,2.794,2.794,0,0,1,1.6,1.6,4.254,4.254,0,0,1,.292,1.58c.049.9.049,1.167.049,3.451S39.606,35.159,39.558,36.058ZM37.2,27.065a1.021,1.021,0,1,0,1.021,1.021A1,1,0,0,0,37.2,27.065Zm-4.569,1.191a4.4,4.4,0,1,0,4.4,4.4A4.4,4.4,0,0,0,32.631,28.256Zm0,7.243a2.844,2.844,0,1,1,2.844-2.844A2.832,2.832,0,0,1,32.631,35.5Z" transform="translate(-6923.1 724.407)"/>
</svg>
