<?xml version="1.0" encoding="utf-8"?>
<!-- Generator: Adobe Illustrator 22.1.0, SVG Export Plug-In . SVG Version: 6.00 Build 0)  -->
<svg version="1.1" id="Layer_1" xmlns="http://www.w3.org/2000/svg" xmlns:xlink="http://www.w3.org/1999/xlink" x="0px" y="0px"
	 viewBox="0 0 100 121.7" style="enable-background:new 0 0 100 121.7;" xml:space="preserve">
<style type="text/css">
	.st0{enable-background:new    ;}
	.st1{fill:#D6B36C;}
	.st2{fill:none;}
	.st3{fill:none;stroke:#B4965A;stroke-width:2;}
	.st4{fill:#B4965A;}
</style>
<g id="Group_631" transform="translate(-619 -3430.348)">
	<g class="st0">
		<path class="st1" d="M621.3,3510.8h3.6c0.5,0,1,0.1,1.5,0.2s0.9,0.4,1.3,0.6s0.8,0.7,1.1,1.1s0.5,1,0.7,1.6s0.3,1.3,0.3,2.1
			c0,0.8-0.1,1.6-0.3,2.2s-0.4,1.2-0.7,1.6s-0.7,0.8-1.1,1s-0.9,0.5-1.3,0.6s-0.9,0.2-1.5,0.2h-3.5V3510.8z M624.7,3520.5
			c0.5,0,1-0.1,1.3-0.2s0.7-0.4,1-0.7s0.5-0.7,0.7-1.3s0.2-1.2,0.2-2c0-1.3-0.3-2.4-0.9-3.1s-1.4-1-2.3-1h-1.9v8.2H624.7z"/>
		<path class="st1" d="M635.1,3510.8h1.6v11.2h-1.6V3510.8z"/>
		<path class="st1" d="M642.6,3513.8c0.3-0.7,0.6-1.3,1.1-1.8s1-0.8,1.5-1.1s1.2-0.4,1.8-0.4c1.1,0,2,0.3,2.8,1s1.2,1.6,1.4,2.7
			l-1.6,0.3c-0.1-0.4-0.2-0.7-0.3-1s-0.3-0.6-0.5-0.8s-0.5-0.4-0.8-0.6s-0.7-0.2-1-0.2c-0.4,0-0.8,0.1-1.2,0.3s-0.7,0.4-1,0.8
			s-0.5,0.8-0.7,1.3s-0.3,1.2-0.3,1.9c0,0.8,0.1,1.4,0.2,2s0.4,1,0.7,1.4s0.6,0.6,1,0.8s0.8,0.3,1.2,0.3c0.9,0,1.5-0.3,2-0.8
			s0.7-1.2,0.7-2.1h-2.6v-1.4h4.1v1.2c0,1.4-0.4,2.6-1.2,3.4s-1.8,1.2-3.1,1.2c-0.5,0-1-0.1-1.5-0.2s-0.9-0.4-1.3-0.7
			s-0.8-0.7-1.1-1.1s-0.5-1-0.7-1.7s-0.3-1.4-0.3-2.3C642.2,3515.4,642.4,3514.5,642.6,3513.8z"/>
		<path class="st1" d="M656.8,3510.8h1.6v11.2h-1.6V3510.8z"/>
		<path class="st1" d="M663.5,3510.8h8.4v1.5h-3.4v9.7h-1.6v-9.7h-3.4V3510.8z"/>
		<path class="st1" d="M678.7,3510.8h1.5l4,11.2h-1.7l-0.7-2.1H677l-0.7,2.1h-1.7L678.7,3510.8z M681.4,3518.6l-1.9-5.5h0l-1.9,5.5
			H681.4z"/>
		<path class="st1" d="M689.2,3510.8h1.6v9.7h4.8v1.5h-6.4V3510.8z"/>
		<path class="st1" d="M700.6,3510.8h1.6v9.7h4.8v1.5h-6.4V3510.8z"/>
		<path class="st1" d="M710.8,3510.8l2.7,5h0l2.7-5h1.7l-3.7,6.5v4.7h-1.6v-4.7l-3.7-6.5H710.8z"/>
	</g>
	<g class="st0">
		<path class="st1" d="M635.2,3538.8c0.3-0.7,0.6-1.3,1.1-1.8s1-0.8,1.5-1.1s1.2-0.4,1.8-0.4c1.1,0,2,0.3,2.8,1s1.2,1.6,1.4,2.7
			l-1.6,0.3c-0.1-0.4-0.2-0.7-0.3-1s-0.3-0.6-0.5-0.8s-0.5-0.4-0.8-0.6s-0.7-0.2-1-0.2c-0.4,0-0.8,0.1-1.2,0.3s-0.7,0.4-1,0.8
			s-0.5,0.8-0.7,1.3s-0.3,1.2-0.3,1.9c0,0.8,0.1,1.4,0.2,2s0.4,1,0.7,1.4s0.6,0.6,1,0.8s0.8,0.3,1.2,0.3c0.9,0,1.5-0.3,2-0.8
			s0.7-1.2,0.7-2.1h-2.6v-1.4h4.1v1.2c0,1.4-0.4,2.6-1.2,3.4s-1.8,1.2-3.1,1.2c-0.5,0-1-0.1-1.5-0.2s-0.9-0.4-1.3-0.7
			s-0.8-0.7-1.1-1.1s-0.5-1-0.7-1.7s-0.3-1.4-0.3-2.3C634.8,3540.4,635,3539.5,635.2,3538.8z"/>
		<path class="st1" d="M649.4,3535.8h4.4c1.2,0,2.1,0.3,2.8,0.9s1,1.4,1,2.5c0,0.9-0.2,1.7-0.7,2.2s-1.1,0.9-2,1l2.4,4.6h-1.8
			l-2.4-4.4H651v4.4h-1.6V3535.8z M653.6,3541.1c0.7,0,1.2-0.2,1.7-0.5s0.6-0.8,0.6-1.5c0-1.3-0.8-2-2.3-2H651v3.9H653.6z"/>
		<path class="st1" d="M662.5,3538.8c0.3-0.7,0.6-1.3,1.1-1.8s1-0.8,1.5-1.1s1.2-0.4,1.8-0.4c0.6,0,1.2,0.1,1.8,0.4s1.1,0.6,1.5,1.1
			c0.4,0.5,0.8,1.1,1.1,1.8s0.4,1.6,0.4,2.5c0,0.8-0.1,1.6-0.3,2.3c-0.2,0.7-0.4,1.2-0.7,1.7s-0.7,0.8-1.1,1.1s-0.8,0.5-1.3,0.6
			s-0.9,0.2-1.4,0.2c-0.5,0-1-0.1-1.4-0.2s-0.9-0.4-1.3-0.7s-0.8-0.7-1.1-1.1s-0.5-1-0.7-1.7s-0.3-1.4-0.3-2.3
			C662.1,3540.4,662.3,3539.5,662.5,3538.8z M664.1,3543.3c0.2,0.6,0.4,1,0.7,1.4s0.6,0.6,1,0.8s0.8,0.3,1.2,0.3
			c0.9,0,1.6-0.4,2.2-1.1s0.8-1.8,0.8-3.3c0-0.7-0.1-1.3-0.2-1.9s-0.4-1-0.7-1.3s-0.6-0.6-1-0.8s-0.8-0.3-1.2-0.3
			c-0.4,0-0.8,0.1-1.2,0.3s-0.7,0.4-1,0.8s-0.5,0.8-0.7,1.3s-0.2,1.2-0.2,1.9C663.8,3542.1,663.9,3542.7,664.1,3543.3z"/>
		<path class="st1" d="M677.6,3535.8l1.6,8.6h0l2.7-8.6h1.2l2.7,8.6h0l1.6-8.6h1.6L687,3547h-1.8l-2.7-8.5h0l-2.6,8.5h-1.8
			l-2.1-11.2H677.6z"/>
		<path class="st1" d="M694.4,3535.8h1.6l4.8,8.4h0v-8.4h1.6v11.2h-1.6l-4.9-8.4h0v8.4h-1.6V3535.8z"/>
	</g>
	<g id="Group_626" transform="translate(71.543 196.984)">
		<g id="Ellipse_13" transform="translate(568 3233.363)">
			<circle class="st2" cx="29.3" cy="29.3" r="29.3"/>
			<circle class="st3" cx="29.3" cy="29.3" r="28.3"/>
		</g>
		<path id="Path_159" class="st4" d="M591.7,3253.8v19.2l15-9.7L591.7,3253.8z"/>
	</g>
</g>
</svg>
